<?xml version="1.0" encoding="UTF-8" standalone="no"?>
<!DOCTYPE svg PUBLIC "-//W3C//DTD SVG 1.1//EN"
 "http://www.w3.org/Graphics/SVG/1.1/DTD/svg11.dtd">
<!-- Generated by graphviz version 14.1.5 (0)
 -->
<!-- Title: architecture Pages: 1 -->
<svg width="2247pt" height="1144pt"
 viewBox="0.00 0.00 2247.00 1144.00" xmlns="http://www.w3.org/2000/svg" xmlns:xlink="http://www.w3.org/1999/xlink">
<g id="graph0" class="graph" transform="scale(1 1) rotate(0) translate(4 1140.47)">
<title>architecture</title>
<polygon fill="white" stroke="none" points="-4,4 -4,-1140.47 2242.68,-1140.47 2242.68,4 -4,4"/>
<text xml:space="preserve" text-anchor="start" x="625.84" y="-1114.47" font-family="Helvetica,sans-Serif" font-weight="bold" font-size="20.00">Leg&#45;Entanglement Detection &amp; Recovery — Detailed System Architecture (Unitree GO2)</text>
<g id="clust2" class="cluster">
<title>cluster_offline</title>
<path fill="#f4f7fb" stroke="#c2d0e4" stroke-dasharray="5,2" d="M1601,-341.08C1601,-341.08 1996,-341.08 1996,-341.08 2002,-341.08 2008,-347.08 2008,-353.08 2008,-353.08 2008,-1027.47 2008,-1027.47 2008,-1033.47 2002,-1039.47 1996,-1039.47 1996,-1039.47 1601,-1039.47 1601,-1039.47 1595,-1039.47 1589,-1033.47 1589,-1027.47 1589,-1027.47 1589,-353.08 1589,-353.08 1589,-347.08 1595,-341.08 1601,-341.08"/>
<text xml:space="preserve" text-anchor="start" x="1597" y="-1024.12" font-family="Helvetica,sans-Serif" font-weight="bold" font-size="13.00">OFFLINE — research &amp; training (PyTorch, dev machine)</text>
</g>
<g id="clust3" class="cluster">
<title>cluster_detector</title>
<path fill="#f1f8f1" stroke="#c4dcc4" stroke-dasharray="5,2" d="M992,-74.27C992,-74.27 1527,-74.27 1527,-74.27 1533,-74.27 1539,-80.27 1539,-86.27 1539,-86.27 1539,-829.68 1539,-829.68 1539,-835.68 1533,-841.68 1527,-841.68 1527,-841.68 992,-841.68 992,-841.68 986,-841.68 980,-835.68 980,-829.68 980,-829.68 980,-86.27 980,-86.27 980,-80.27 986,-74.27 992,-74.27"/>
<text xml:space="preserve" text-anchor="start" x="988" y="-826.33" font-family="Helvetica,sans-Serif" font-weight="bold" font-size="13.00">DETECTOR NODE — entanglement_detector (ROS 2, CPU · numpy + ONNX)</text>
</g>
<g id="clust4" class="cluster">
<title>cluster_recovery</title>
<path fill="#fdf6ec" stroke="#e3c89a" stroke-dasharray="5,2" d="M20,-245.31C20,-245.31 691,-245.31 691,-245.31 697,-245.31 703,-251.31 703,-257.31 703,-257.31 703,-825.42 703,-825.42 703,-831.42 697,-837.42 691,-837.42 691,-837.42 20,-837.42 20,-837.42 14,-837.42 8,-831.42 8,-825.42 8,-825.42 8,-257.31 8,-257.31 8,-251.31 14,-245.31 20,-245.31"/>
<text xml:space="preserve" text-anchor="start" x="16" y="-822.07" font-family="Helvetica,sans-Serif" font-weight="bold" font-size="13.00">RECOVERY NODE — entanglement_recovery (ROS 2 · pure FSM + thin adapters)</text>
</g>
<!-- t_lowstate -->
<g id="node1" class="node">
<title>t_lowstate</title>
<polygon fill="#fff6d6" stroke="#a38a1e" stroke-width="1.4" points="1336.2,-915.95 1193.8,-915.95 1193.8,-870.68 1342.2,-870.68 1342.2,-909.95 1336.2,-915.95"/>
<polyline fill="none" stroke="#a38a1e" stroke-width="1.4" points="1336.2,-915.95 1336.2,-909.95"/>
<polyline fill="none" stroke="#a38a1e" stroke-width="1.4" points="1342.2,-909.95 1336.2,-909.95"/>
<text xml:space="preserve" text-anchor="start" x="1203.88" y="-901.16" font-family="Helvetica,sans-Serif" font-weight="bold" font-size="9.50">/lowstate</text>
<text xml:space="preserve" text-anchor="start" x="1203.88" y="-889.91" font-family="Helvetica,sans-Serif" font-weight="bold" font-size="9.50">(unitree_go/LowState)</text>
<text xml:space="preserve" text-anchor="middle" x="1268" y="-878.66" font-family="Helvetica,sans-Serif" font-weight="bold" font-size="9.50">BEST_EFFORT · ~500 Hz</text>
</g>
<!-- d_adapt -->
<g id="node14" class="node">
<title>d_adapt</title>
<path fill="#e6f2e6" stroke="#3c7a3c" stroke-width="1.4" d="M1363.58,-805.18C1363.58,-805.18 1172.42,-805.18 1172.42,-805.18 1166.42,-805.18 1160.42,-799.18 1160.42,-793.18 1160.42,-793.18 1160.42,-772.66 1160.42,-772.66 1160.42,-766.66 1166.42,-760.66 1172.42,-760.66 1172.42,-760.66 1363.58,-760.66 1363.58,-760.66 1369.58,-760.66 1375.58,-766.66 1375.58,-772.66 1375.58,-772.66 1375.58,-793.18 1375.58,-793.18 1375.58,-799.18 1369.58,-805.18 1363.58,-805.18"/>
<text xml:space="preserve" text-anchor="start" x="1214.38" y="-789.97" font-family="Helvetica,sans-Serif" font-weight="bold" font-size="11.00">lowstate_adapter</text>
<text xml:space="preserve" text-anchor="start" x="1194.5" y="-778.97" font-family="Helvetica,sans-Serif" font-size="11.00">LowState → 48 raw signals</text>
<text xml:space="preserve" text-anchor="start" x="1170.5" y="-767.97" font-family="Helvetica,sans-Serif" font-size="11.00">(36 motor q/dq/tau · 4 foot · 8 IMU)</text>
</g>
<!-- t_lowstate&#45;&gt;d_adapt -->
<g id="edge22" class="edge">
<title>t_lowstate&#45;&gt;d_adapt</title>
<path fill="none" stroke="#37474f" stroke-width="1.3" d="M1268,-870.12C1268,-864.5 1268,-858.16 1268,-851.54"/>
<polygon fill="#37474f" stroke="#37474f" stroke-width="1.3" points="1270.8,-851.65 1268,-843.65 1265.2,-851.65 1270.8,-851.65"/>
</g>
<!-- t_entstate -->
<g id="node2" class="node">
<title>t_entstate</title>
<polygon fill="#fff6d6" stroke="#a38a1e" stroke-width="1.4" points="309.45,-45.27 102.55,-45.27 102.55,0 315.45,0 315.45,-39.27 309.45,-45.27"/>
<polyline fill="none" stroke="#a38a1e" stroke-width="1.4" points="309.45,-45.27 309.45,-39.27"/>
<polyline fill="none" stroke="#a38a1e" stroke-width="1.4" points="315.45,-39.27 309.45,-39.27"/>
<text xml:space="preserve" text-anchor="start" x="112.62" y="-30.48" font-family="Helvetica,sans-Serif" font-weight="bold" font-size="9.50">/entanglement_state</text>
<text xml:space="preserve" text-anchor="start" x="112.62" y="-19.23" font-family="Helvetica,sans-Serif" font-weight="bold" font-size="9.50">(entanglement_interfaces/</text>
<text xml:space="preserve" text-anchor="middle" x="209" y="-7.98" font-family="Helvetica,sans-Serif" font-weight="bold" font-size="9.50">EntanglementState) · BEST_EFFORT</text>
</g>
<!-- r_det -->
<g id="node22" class="node">
<title>r_det</title>
<path fill="#fbeedd" stroke="#b5701a" stroke-width="1.4" d="M279.71,-800.92C279.71,-800.92 32.29,-800.92 32.29,-800.92 26.29,-800.92 20.29,-794.92 20.29,-788.92 20.29,-788.92 20.29,-776.92 20.29,-776.92 20.29,-770.92 26.29,-764.92 32.29,-764.92 32.29,-764.92 279.71,-764.92 279.71,-764.92 285.71,-764.92 291.71,-770.92 291.71,-776.92 291.71,-776.92 291.71,-788.92 291.71,-788.92 291.71,-794.92 285.71,-800.92 279.71,-800.92"/>
<text xml:space="preserve" text-anchor="start" x="81.75" y="-784.47" font-family="Helvetica,sans-Serif" font-weight="bold" font-size="11.00">on_detection</text>
<text xml:space="preserve" text-anchor="start" x="160.5" y="-784.47" font-family="Helvetica,sans-Serif" font-size="11.00"> → Detection</text>
<text xml:space="preserve" text-anchor="start" x="30.38" y="-773.47" font-family="Helvetica,sans-Serif" font-size="11.00">{entangled, confidence, alarm_leg, intensity}</text>
</g>
<!-- t_entstate&#45;&gt;r_det -->
<g id="edge24" class="edge">
<title>t_entstate&#45;&gt;r_det</title>
<path fill="none" stroke="#37474f" stroke-width="1.3" d="M202.81,-45.88C198.68,-62.67 194,-86.37 194,-107.53 194,-153.75 194,-196.29 194,-235.43"/>
<polygon fill="#37474f" stroke="#37474f" stroke-width="1.3" points="191.2,-235.35 194,-243.35 196.8,-235.35 191.2,-235.35"/>
</g>
<!-- t_sportmode -->
<g id="node3" class="node">
<title>t_sportmode</title>
<polygon fill="#fff6d6" stroke="#a38a1e" stroke-width="1.4" points="1163.08,-911.31 992.92,-911.31 992.92,-875.31 1169.08,-875.31 1169.08,-905.31 1163.08,-911.31"/>
<polyline fill="none" stroke="#a38a1e" stroke-width="1.4" points="1163.08,-911.31 1163.08,-905.31"/>
<polyline fill="none" stroke="#a38a1e" stroke-width="1.4" points="1169.08,-905.31 1163.08,-905.31"/>
<text xml:space="preserve" text-anchor="start" x="1003" y="-895.54" font-family="Helvetica,sans-Serif" font-weight="bold" font-size="9.50">/sportmodestate + /lowstate</text>
<text xml:space="preserve" text-anchor="middle" x="1081" y="-884.29" font-family="Helvetica,sans-Serif" font-weight="bold" font-size="9.50">(telemetry) · BEST_EFFORT</text>
</g>
<!-- r_telem -->
<g id="node23" class="node">
<title>r_telem</title>
<path fill="#fbeedd" stroke="#b5701a" stroke-width="1.4" d="M679.46,-800.92C679.46,-800.92 328.54,-800.92 328.54,-800.92 322.54,-800.92 316.54,-794.92 316.54,-788.92 316.54,-788.92 316.54,-776.92 316.54,-776.92 316.54,-770.92 322.54,-764.92 328.54,-764.92 328.54,-764.92 679.46,-764.92 679.46,-764.92 685.46,-764.92 691.46,-770.92 691.46,-776.92 691.46,-776.92 691.46,-788.92 691.46,-788.92 691.46,-794.92 685.46,-800.92 679.46,-800.92"/>
<text xml:space="preserve" text-anchor="start" x="445.12" y="-784.47" font-family="Helvetica,sans-Serif" font-weight="bold" font-size="11.00">RobotStateMonitor</text>
<text xml:space="preserve" text-anchor="start" x="326.62" y="-773.47" font-family="Helvetica,sans-Serif" font-size="11.00">/sportmodestate(+/lowstate) → posture · roll · pitch · soc · fresh</text>
</g>
<!-- t_sportmode&#45;&gt;r_telem -->
<g id="edge26" class="edge">
<title>t_sportmode&#45;&gt;r_telem</title>
<path fill="none" stroke="#37474f" stroke-width="1.3" d="M992.39,-884.15C915.59,-876.18 801.75,-862.24 704,-841.68 700.84,-841.01 697.65,-840.33 694.45,-839.61"/>
<polygon fill="#37474f" stroke="#37474f" stroke-width="1.3" points="695.13,-836.9 686.7,-837.85 693.88,-842.36 695.13,-836.9"/>
</g>
<!-- t_sportreq -->
<g id="node4" class="node">
<title>t_sportreq</title>
<polygon fill="#fff6d6" stroke="#a38a1e" stroke-width="1.4" points="1067.7,-1104.47 898.29,-1104.47 898.29,-1068.47 1073.7,-1068.47 1073.7,-1098.47 1067.7,-1104.47"/>
<polyline fill="none" stroke="#a38a1e" stroke-width="1.4" points="1067.7,-1104.47 1067.7,-1098.47"/>
<polyline fill="none" stroke="#a38a1e" stroke-width="1.4" points="1073.7,-1098.47 1067.7,-1098.47"/>
<text xml:space="preserve" text-anchor="start" x="908.38" y="-1088.69" font-family="Helvetica,sans-Serif" font-weight="bold" font-size="9.50">/api/sport/request</text>
<text xml:space="preserve" text-anchor="middle" x="986" y="-1077.44" font-family="Helvetica,sans-Serif" font-weight="bold" font-size="9.50">(unitree_api/Request, api_id)</text>
</g>
<!-- robot -->
<g id="node29" class="node">
<title>robot</title>
<polygon fill="#eceff3" stroke="#37474f" stroke-width="1.8" points="1223.08,-1004.47 992.92,-1004.47 992.92,-1000.47 988.92,-1000.47 988.92,-996.47 992.92,-996.47 992.92,-964.95 988.92,-964.95 988.92,-960.95 992.92,-960.95 992.92,-956.95 1223.08,-956.95 1223.08,-1004.47"/>
<polyline fill="none" stroke="#37474f" stroke-width="1.8" points="992.92,-1000.47 996.92,-1000.47 996.92,-996.47 992.92,-996.47"/>
<polyline fill="none" stroke="#37474f" stroke-width="1.8" points="992.92,-964.95 996.92,-964.95 996.92,-960.95 992.92,-960.95"/>
<text xml:space="preserve" text-anchor="start" x="1066.38" y="-988.31" font-family="Helvetica,sans-Serif" font-weight="bold" font-size="12.00">Unitree GO2</text>
<text xml:space="preserve" text-anchor="start" x="1003" y="-976.31" font-family="Helvetica,sans-Serif" font-size="12.00">Sport service · sensors + actuators</text>
<text xml:space="preserve" text-anchor="start" x="1061.88" y="-964.31" font-family="Helvetica,sans-Serif" font-size="12.00">(physical robot)</text>
</g>
<!-- t_sportreq&#45;&gt;robot -->
<g id="edge29" class="edge">
<title>t_sportreq&#45;&gt;robot</title>
<path fill="none" stroke="#37474f" stroke-width="1.3" d="M1006.7,-1067.87C1024.82,-1052.46 1051.53,-1029.74 1072.98,-1011.5"/>
<polygon fill="#37474f" stroke="#37474f" stroke-width="1.3" points="1074.54,-1013.84 1078.82,-1006.53 1070.91,-1009.58 1074.54,-1013.84"/>
</g>
<!-- t_status -->
<g id="node5" class="node">
<title>t_status</title>
<polygon fill="#fff6d6" stroke="#a38a1e" stroke-width="1.4" points="1241.58,-1104.47 1098.42,-1104.47 1098.42,-1068.47 1247.58,-1068.47 1247.58,-1098.47 1241.58,-1104.47"/>
<polyline fill="none" stroke="#a38a1e" stroke-width="1.4" points="1241.58,-1104.47 1241.58,-1098.47"/>
<polyline fill="none" stroke="#a38a1e" stroke-width="1.4" points="1247.58,-1098.47 1241.58,-1098.47"/>
<text xml:space="preserve" text-anchor="start" x="1108.5" y="-1088.69" font-family="Helvetica,sans-Serif" font-weight="bold" font-size="9.50">/recovery_status</text>
<text xml:space="preserve" text-anchor="middle" x="1173" y="-1077.44" font-family="Helvetica,sans-Serif" font-weight="bold" font-size="9.50">(std_msgs/String, JSON)</text>
</g>
<!-- t_ctrl -->
<g id="node6" class="node">
<title>t_ctrl</title>
<polygon fill="#fff6d6" stroke="#a38a1e" stroke-width="1.4" points="911.08,-800.92 716.92,-800.92 716.92,-764.92 917.08,-764.92 917.08,-794.92 911.08,-800.92"/>
<polyline fill="none" stroke="#a38a1e" stroke-width="1.4" points="911.08,-800.92 911.08,-794.92"/>
<polyline fill="none" stroke="#a38a1e" stroke-width="1.4" points="917.08,-794.92 911.08,-794.92"/>
<text xml:space="preserve" text-anchor="start" x="727" y="-785.14" font-family="Helvetica,sans-Serif" font-weight="bold" font-size="9.50">/recovery_estop · /recovery_reset</text>
<text xml:space="preserve" text-anchor="middle" x="817" y="-773.89" font-family="Helvetica,sans-Serif" font-weight="bold" font-size="9.50">(std_msgs/Empty)</text>
</g>
<!-- r_fsm -->
<g id="node24" class="node">
<title>r_fsm</title>
<path fill="#fbeedd" stroke="#b5701a" stroke-width="1.4" d="M653.58,-719.66C653.58,-719.66 342.42,-719.66 342.42,-719.66 336.42,-719.66 330.42,-713.66 330.42,-707.66 330.42,-707.66 330.42,-665.14 330.42,-665.14 330.42,-659.14 336.42,-653.14 342.42,-653.14 342.42,-653.14 653.58,-653.14 653.58,-653.14 659.58,-653.14 665.58,-659.14 665.58,-665.14 665.58,-665.14 665.58,-707.66 665.58,-707.66 665.58,-713.66 659.58,-719.66 653.58,-719.66"/>
<text xml:space="preserve" text-anchor="start" x="378.75" y="-704.45" font-family="Helvetica,sans-Serif" font-weight="bold" font-size="11.00">RecoveryFSM.update(now)</text>
<text xml:space="preserve" text-anchor="start" x="546.75" y="-704.45" font-family="Helvetica,sans-Serif" font-size="11.00"> — 10 states</text>
<text xml:space="preserve" text-anchor="start" x="348" y="-693.45" font-family="Helvetica,sans-Serif" font-size="11.00">IDLE → MONITORING → CONFIRMING (sustained ≥ t) →</text>
<text xml:space="preserve" text-anchor="start" x="351" y="-682.45" font-family="Helvetica,sans-Serif" font-size="11.00">STOPPING (skip if already stopped) → RECOVERING →</text>
<text xml:space="preserve" text-anchor="start" x="345" y="-671.45" font-family="Helvetica,sans-Serif" font-size="11.00">VERIFYING → RESUMING → COOLDOWN → MONITORING</text>
<text xml:space="preserve" text-anchor="start" x="340.5" y="-660.45" font-family="Helvetica,sans-Serif" font-size="11.00">global: ESTOP (Damp) · FAULT (Damp) on retry/watchdog</text>
</g>
<!-- t_ctrl&#45;&gt;r_fsm -->
<g id="edge27" class="edge">
<title>t_ctrl&#45;&gt;r_fsm</title>
<path fill="none" stroke="#37474f" stroke-width="1.3" d="M757.37,-764.25C743.79,-760.23 728.59,-755.72 712.54,-750.97"/>
<polygon fill="#37474f" stroke="#37474f" stroke-width="1.3" points="713.35,-748.29 704.88,-748.7 711.76,-753.66 713.35,-748.29"/>
</g>
<!-- o_csv -->
<g id="node7" class="node">
<title>o_csv</title>
<path fill="#e8eef7" stroke="#3b5b92" stroke-width="1.4" d="M1868.95,-1002.97C1868.95,-1002.97 1689.05,-1002.97 1689.05,-1002.97 1683.05,-1002.97 1677.05,-996.97 1677.05,-990.97 1677.05,-990.97 1677.05,-970.45 1677.05,-970.45 1677.05,-964.45 1683.05,-958.45 1689.05,-958.45 1689.05,-958.45 1868.95,-958.45 1868.95,-958.45 1874.95,-958.45 1880.95,-964.45 1880.95,-970.45 1880.95,-970.45 1880.95,-990.97 1880.95,-990.97 1880.95,-996.97 1874.95,-1002.97 1868.95,-1002.97"/>
<text xml:space="preserve" text-anchor="start" x="1754.62" y="-987.76" font-family="Helvetica,sans-Serif" font-weight="bold" font-size="11.00">Dataset</text>
<text xml:space="preserve" text-anchor="start" x="1710.75" y="-976.76" font-family="Helvetica,sans-Serif" font-size="11.00">csv/ · 25 GO2 recordings</text>
<text xml:space="preserve" text-anchor="start" x="1687.12" y="-965.76" font-family="Helvetica,sans-Serif" font-size="11.00">15 positive / 10 negative (+Lock)</text>
</g>
<!-- o_prep -->
<g id="node8" class="node">
<title>o_prep</title>
<path fill="#e8eef7" stroke="#3b5b92" stroke-width="1.4" d="M1900.45,-915.57C1900.45,-915.57 1657.55,-915.57 1657.55,-915.57 1651.55,-915.57 1645.55,-909.57 1645.55,-903.57 1645.55,-903.57 1645.55,-883.05 1645.55,-883.05 1645.55,-877.05 1651.55,-871.05 1657.55,-871.05 1657.55,-871.05 1900.45,-871.05 1900.45,-871.05 1906.45,-871.05 1912.45,-877.05 1912.45,-883.05 1912.45,-883.05 1912.45,-903.57 1912.45,-903.57 1912.45,-909.57 1906.45,-915.57 1900.45,-915.57"/>
<text xml:space="preserve" text-anchor="start" x="1748.62" y="-900.36" font-family="Helvetica,sans-Serif" font-weight="bold" font-size="11.00">Data prep</text>
<text xml:space="preserve" text-anchor="start" x="1655.62" y="-889.36" font-family="Helvetica,sans-Serif" font-size="11.00">normalize_timestamps.py → csv_normalized/</text>
<text xml:space="preserve" text-anchor="start" x="1664.62" y="-878.36" font-family="Helvetica,sans-Serif" font-size="11.00">merge_labels.py (+label/) → csv_labelled/</text>
</g>
<!-- o_csv&#45;&gt;o_prep -->
<g id="edge1" class="edge">
<title>o_csv&#45;&gt;o_prep</title>
<path fill="none" stroke="#37474f" stroke-width="1.3" d="M1779,-958.16C1779,-948.43 1779,-936.73 1779,-926.02"/>
<polygon fill="#37474f" stroke="#37474f" stroke-width="1.3" points="1781.8,-926.12 1779,-918.12 1776.2,-926.12 1781.8,-926.12"/>
</g>
<!-- o_feat -->
<g id="node9" class="node">
<title>o_feat</title>
<path fill="#e8eef7" stroke="#3b5b92" stroke-width="1.4" d="M1943.58,-805.18C1943.58,-805.18 1614.42,-805.18 1614.42,-805.18 1608.42,-805.18 1602.42,-799.18 1602.42,-793.18 1602.42,-793.18 1602.42,-772.66 1602.42,-772.66 1602.42,-766.66 1608.42,-760.66 1614.42,-760.66 1614.42,-760.66 1943.58,-760.66 1943.58,-760.66 1949.58,-760.66 1955.58,-766.66 1955.58,-772.66 1955.58,-772.66 1955.58,-793.18 1955.58,-793.18 1955.58,-799.18 1949.58,-805.18 1943.58,-805.18"/>
<text xml:space="preserve" text-anchor="start" x="1728" y="-789.97" font-family="Helvetica,sans-Serif" font-weight="bold" font-size="11.00">Preprocess (ml/)</text>
<text xml:space="preserve" text-anchor="start" x="1612.5" y="-778.97" font-family="Helvetica,sans-Serif" font-size="11.00">resample 500 Hz · features 48 raw + 12 engineered = 60 ch</text>
<text xml:space="preserve" text-anchor="start" x="1614.38" y="-767.97" font-family="Helvetica,sans-Serif" font-size="11.00">sliding window 0.40 s (200) · z&#45;score norm (train rows only)</text>
</g>
<!-- o_prep&#45;&gt;o_feat -->
<g id="edge2" class="edge">
<title>o_prep&#45;&gt;o_feat</title>
<path fill="none" stroke="#37474f" stroke-width="1.3" d="M1779,-870.38C1779,-854.66 1779,-833.24 1779,-815.66"/>
<polygon fill="#37474f" stroke="#37474f" stroke-width="1.3" points="1781.8,-815.79 1779,-807.79 1776.2,-815.79 1781.8,-815.79"/>
</g>
<!-- o_tcn -->
<g id="node10" class="node">
<title>o_tcn</title>
<path fill="#e9e6f7" stroke="#5b4b9e" stroke-width="1.4" d="M1897.58,-719.66C1897.58,-719.66 1628.42,-719.66 1628.42,-719.66 1622.42,-719.66 1616.42,-713.66 1616.42,-707.66 1616.42,-707.66 1616.42,-665.14 1616.42,-665.14 1616.42,-659.14 1622.42,-653.14 1628.42,-653.14 1628.42,-653.14 1897.58,-653.14 1897.58,-653.14 1903.58,-653.14 1909.58,-659.14 1909.58,-665.14 1909.58,-665.14 1909.58,-707.66 1909.58,-707.66 1909.58,-713.66 1903.58,-719.66 1897.58,-719.66"/>
<text xml:space="preserve" text-anchor="start" x="1663.62" y="-704.45" font-family="Helvetica,sans-Serif" font-weight="bold" font-size="11.00">Multi&#45;task causal TCN</text>
<text xml:space="preserve" text-anchor="start" x="1798.62" y="-704.45" font-family="Helvetica,sans-Serif" font-size="11.00"> (model.py)</text>
<text xml:space="preserve" text-anchor="start" x="1653.12" y="-693.45" font-family="Helvetica,sans-Serif" font-size="11.00">CausalConv1d stem 60→64 (k3) + GELU</text>
<text xml:space="preserve" text-anchor="start" x="1626.5" y="-682.45" font-family="Helvetica,sans-Serif" font-size="11.00">5 × residual TCN block: d = 1,2,4,8,16 · RF = 127</text>
<text xml:space="preserve" text-anchor="start" x="1649.38" y="-671.45" font-family="Helvetica,sans-Serif" font-size="11.00">last&#45;timestep embedding [64] → 3 heads:</text>
<text xml:space="preserve" text-anchor="start" x="1650.88" y="-660.45" font-family="Helvetica,sans-Serif" font-size="11.00">bin(64→1) · legs(64→4) · intensity(64→4)</text>
</g>
<!-- o_feat&#45;&gt;o_tcn -->
<g id="edge3" class="edge">
<title>o_feat&#45;&gt;o_tcn</title>
<path fill="none" stroke="#37474f" stroke-width="1.3" d="M1775.29,-760C1773.78,-751.07 1771.98,-740.43 1770.23,-730.09"/>
<polygon fill="#37474f" stroke="#37474f" stroke-width="1.3" points="1773,-729.69 1768.9,-722.27 1767.48,-730.62 1773,-729.69"/>
</g>
<!-- o_train -->
<g id="node11" class="node">
<title>o_train</title>
<path fill="#e9e6f7" stroke="#5b4b9e" stroke-width="1.4" d="M1887.08,-579.64C1887.08,-579.64 1620.92,-579.64 1620.92,-579.64 1614.92,-579.64 1608.92,-573.64 1608.92,-567.64 1608.92,-567.64 1608.92,-547.12 1608.92,-547.12 1608.92,-541.12 1614.92,-535.12 1620.92,-535.12 1620.92,-535.12 1887.08,-535.12 1887.08,-535.12 1893.08,-535.12 1899.08,-541.12 1899.08,-547.12 1899.08,-547.12 1899.08,-567.64 1899.08,-567.64 1899.08,-573.64 1893.08,-579.64 1887.08,-579.64"/>
<text xml:space="preserve" text-anchor="start" x="1729.62" y="-564.43" font-family="Helvetica,sans-Serif" font-weight="bold" font-size="11.00">train.py</text>
<text xml:space="preserve" text-anchor="start" x="1675.25" y="-553.43" font-family="Helvetica,sans-Serif" font-size="11.00">fixed split 16/4/5 + LORO&#45;CV</text>
<text xml:space="preserve" text-anchor="start" x="1619" y="-542.43" font-family="Helvetica,sans-Serif" font-size="11.00">loss = 1·BCE(bin) + 1·BCE(legs) + 0.3·Huber(int)</text>
</g>
<!-- o_tcn&#45;&gt;o_train -->
<g id="edge4" class="edge">
<title>o_tcn&#45;&gt;o_train</title>
<path fill="none" stroke="#37474f" stroke-width="1.3" d="M1760.68,-652.69C1759.31,-633.37 1757.59,-609.04 1756.24,-589.93"/>
<polygon fill="#37474f" stroke="#37474f" stroke-width="1.3" points="1759.04,-589.94 1755.68,-582.16 1753.46,-590.34 1759.04,-589.94"/>
</g>
<!-- o_arti -->
<g id="node12" class="node">
<title>o_arti</title>
<path fill="#e9e6f7" stroke="#5b4b9e" stroke-width="1.4" d="M1859.95,-483.12C1859.95,-483.12 1644.05,-483.12 1644.05,-483.12 1638.05,-483.12 1632.05,-477.12 1632.05,-471.12 1632.05,-471.12 1632.05,-450.6 1632.05,-450.6 1632.05,-444.6 1638.05,-438.6 1644.05,-438.6 1644.05,-438.6 1859.95,-438.6 1859.95,-438.6 1865.95,-438.6 1871.95,-444.6 1871.95,-450.6 1871.95,-450.6 1871.95,-471.12 1871.95,-471.12 1871.95,-477.12 1865.95,-483.12 1859.95,-483.12"/>
<text xml:space="preserve" text-anchor="start" x="1725.38" y="-467.91" font-family="Helvetica,sans-Serif" font-weight="bold" font-size="11.00">Artifacts</text>
<text xml:space="preserve" text-anchor="start" x="1681.88" y="-456.91" font-family="Helvetica,sans-Serif" font-size="11.00">model.pt · normalize.json</text>
<text xml:space="preserve" text-anchor="start" x="1642.12" y="-445.91" font-family="Helvetica,sans-Serif" font-size="11.00">intensity_calib.json · calibration.json (T)</text>
</g>
<!-- o_train&#45;&gt;o_arti -->
<g id="edge5" class="edge">
<title>o_train&#45;&gt;o_arti</title>
<path fill="none" stroke="#37474f" stroke-width="1.3" d="M1753.54,-534.46C1753.28,-522.29 1752.95,-506.94 1752.67,-493.49"/>
<polygon fill="#37474f" stroke="#37474f" stroke-width="1.3" points="1755.47,-493.57 1752.5,-485.63 1749.87,-493.69 1755.47,-493.57"/>
</g>
<!-- o_exp -->
<g id="node13" class="node">
<title>o_exp</title>
<path fill="#e1f0ee" stroke="#2e7d74" stroke-width="1.4" d="M1871.83,-397.6C1871.83,-397.6 1616.17,-397.6 1616.17,-397.6 1610.17,-397.6 1604.17,-391.6 1604.17,-385.6 1604.17,-385.6 1604.17,-365.08 1604.17,-365.08 1604.17,-359.08 1610.17,-353.08 1616.17,-353.08 1616.17,-353.08 1871.83,-353.08 1871.83,-353.08 1877.83,-353.08 1883.83,-359.08 1883.83,-365.08 1883.83,-365.08 1883.83,-385.6 1883.83,-385.6 1883.83,-391.6 1877.83,-397.6 1871.83,-397.6"/>
<text xml:space="preserve" text-anchor="start" x="1693" y="-382.39" font-family="Helvetica,sans-Serif" font-weight="bold" font-size="11.00">export_model.py</text>
<text xml:space="preserve" text-anchor="start" x="1649.12" y="-371.39" font-family="Helvetica,sans-Serif" font-size="11.00">→ entanglement_tcn.onnx + _ts.pt</text>
<text xml:space="preserve" text-anchor="start" x="1614.25" y="-360.39" font-family="Helvetica,sans-Serif" font-size="11.00">copies calib JSON · runtime ≡ research (≈1e&#45;6)</text>
</g>
<!-- o_arti&#45;&gt;o_exp -->
<g id="edge6" class="edge">
<title>o_arti&#45;&gt;o_exp</title>
<path fill="none" stroke="#37474f" stroke-width="1.3" d="M1749.9,-437.92C1749.02,-428.71 1747.97,-417.83 1747.01,-407.8"/>
<polygon fill="#37474f" stroke="#37474f" stroke-width="1.3" points="1749.83,-407.79 1746.28,-400.1 1744.25,-408.33 1749.83,-407.79"/>
</g>
<!-- d_back -->
<g id="node19" class="node">
<title>d_back</title>
<path fill="#e6f2e6" stroke="#3c7a3c" stroke-width="1.4" d="M1396.2,-297.57C1396.2,-297.57 1139.8,-297.57 1139.8,-297.57 1133.8,-297.57 1127.8,-291.57 1127.8,-285.57 1127.8,-285.57 1127.8,-273.57 1127.8,-273.57 1127.8,-267.57 1133.8,-261.57 1139.8,-261.57 1139.8,-261.57 1396.2,-261.57 1396.2,-261.57 1402.2,-261.57 1408.2,-267.57 1408.2,-273.57 1408.2,-273.57 1408.2,-285.57 1408.2,-285.57 1408.2,-291.57 1402.2,-297.57 1396.2,-297.57"/>
<text xml:space="preserve" text-anchor="start" x="1137.88" y="-281.12" font-family="Helvetica,sans-Serif" font-weight="bold" font-size="11.00">model backend</text>
<text xml:space="preserve" text-anchor="start" x="1230.88" y="-281.12" font-family="Helvetica,sans-Serif" font-size="11.00"> (ONNX Runtime / TorchScript)</text>
<text xml:space="preserve" text-anchor="start" x="1140.12" y="-270.12" font-family="Helvetica,sans-Serif" font-size="11.00">forward → bin_logit · legs_logit · intensity_logit</text>
</g>
<!-- o_exp&#45;&gt;d_back -->
<g id="edge20" class="edge">
<title>o_exp&#45;&gt;d_back</title>
<path fill="none" stroke="#37474f" stroke-width="1.3" stroke-dasharray="5,2" d="M1632.7,-352.41C1606.85,-347.32 1578.19,-341.68 1548.63,-335.85"/>
<polygon fill="#37474f" stroke="#37474f" stroke-width="1.3" points="1549.32,-333.13 1540.93,-334.34 1548.23,-338.63 1549.32,-333.13"/>
<text xml:space="preserve" text-anchor="middle" x="1586.25" y="-324.06" font-family="Helvetica,sans-Serif" font-size="9.50" fill="#2e7d74">deploy: ONNX + JSON</text>
</g>
<!-- d_gate -->
<g id="node15" class="node">
<title>d_gate</title>
<path fill="#e6f2e6" stroke="#3c7a3c" stroke-width="1.4" d="M1413.08,-708.66C1413.08,-708.66 1122.92,-708.66 1122.92,-708.66 1116.92,-708.66 1110.92,-702.66 1110.92,-696.66 1110.92,-696.66 1110.92,-676.14 1110.92,-676.14 1110.92,-670.14 1116.92,-664.14 1122.92,-664.14 1122.92,-664.14 1413.08,-664.14 1413.08,-664.14 1419.08,-664.14 1425.08,-670.14 1425.08,-676.14 1425.08,-676.14 1425.08,-696.66 1425.08,-696.66 1425.08,-702.66 1419.08,-708.66 1413.08,-708.66"/>
<text xml:space="preserve" text-anchor="start" x="1182.88" y="-693.45" font-family="Helvetica,sans-Serif" font-weight="bold" font-size="11.00">stationarity gate</text>
<text xml:space="preserve" text-anchor="start" x="1287.12" y="-693.45" font-family="Helvetica,sans-Serif" font-size="11.00"> (Stop/Lock)</text>
<text xml:space="preserve" text-anchor="start" x="1172" y="-682.45" font-family="Helvetica,sans-Serif" font-size="11.00">mean|joint dq| &lt; thr for N samples</text>
<text xml:space="preserve" text-anchor="start" x="1121" y="-671.45" font-family="Helvetica,sans-Serif" font-size="11.00">→ clear ring buffer + debounce; arm stabilize window</text>
</g>
<!-- d_adapt&#45;&gt;d_gate -->
<g id="edge7" class="edge">
<title>d_adapt&#45;&gt;d_gate</title>
<path fill="none" stroke="#37474f" stroke-width="1.3" d="M1268,-760C1268,-747.83 1268,-732.48 1268,-719.03"/>
<polygon fill="#37474f" stroke="#37474f" stroke-width="1.3" points="1270.8,-719.17 1268,-711.17 1265.2,-719.17 1270.8,-719.17"/>
</g>
<!-- d_ring -->
<g id="node16" class="node">
<title>d_ring</title>
<path fill="#e6f2e6" stroke="#3c7a3c" stroke-width="1.4" d="M1387.58,-575.38C1387.58,-575.38 1148.42,-575.38 1148.42,-575.38 1142.42,-575.38 1136.42,-569.38 1136.42,-563.38 1136.42,-563.38 1136.42,-551.38 1136.42,-551.38 1136.42,-545.38 1142.42,-539.38 1148.42,-539.38 1148.42,-539.38 1387.58,-539.38 1387.58,-539.38 1393.58,-539.38 1399.58,-545.38 1399.58,-551.38 1399.58,-551.38 1399.58,-563.38 1399.58,-563.38 1399.58,-569.38 1393.58,-575.38 1387.58,-575.38"/>
<text xml:space="preserve" text-anchor="start" x="1177.62" y="-558.93" font-family="Helvetica,sans-Serif" font-weight="bold" font-size="11.00">ring buffer</text>
<text xml:space="preserve" text-anchor="start" x="1242.12" y="-558.93" font-family="Helvetica,sans-Serif" font-size="11.00"> deque(maxlen=200)</text>
<text xml:space="preserve" text-anchor="start" x="1146.5" y="-547.93" font-family="Helvetica,sans-Serif" font-size="11.00">&lt; 200 samples → return None (buffer filling)</text>
</g>
<!-- d_gate&#45;&gt;d_ring -->
<g id="edge8" class="edge">
<title>d_gate&#45;&gt;d_ring</title>
<path fill="none" stroke="#37474f" stroke-width="1.3" d="M1268,-663.56C1268,-642.04 1268,-609.07 1268,-585.79"/>
<polygon fill="#37474f" stroke="#37474f" stroke-width="1.3" points="1270.8,-585.82 1268,-577.82 1265.2,-585.82 1270.8,-585.82"/>
</g>
<!-- d_build -->
<g id="node17" class="node">
<title>d_build</title>
<path fill="#e6f2e6" stroke="#3c7a3c" stroke-width="1.4" d="M1392.08,-478.86C1392.08,-478.86 1143.92,-478.86 1143.92,-478.86 1137.92,-478.86 1131.92,-472.86 1131.92,-466.86 1131.92,-466.86 1131.92,-454.86 1131.92,-454.86 1131.92,-448.86 1137.92,-442.86 1143.92,-442.86 1143.92,-442.86 1392.08,-442.86 1392.08,-442.86 1398.08,-442.86 1404.08,-448.86 1404.08,-454.86 1404.08,-454.86 1404.08,-466.86 1404.08,-466.86 1404.08,-472.86 1398.08,-478.86 1392.08,-478.86"/>
<text xml:space="preserve" text-anchor="start" x="1203.88" y="-462.41" font-family="Helvetica,sans-Serif" font-weight="bold" font-size="11.00">build_channel_matrix</text>
<text xml:space="preserve" text-anchor="start" x="1142" y="-451.41" font-family="Helvetica,sans-Serif" font-size="11.00">[200,48] → [60,200] (+12 engineered per&#45;leg)</text>
</g>
<!-- d_ring&#45;&gt;d_build -->
<g id="edge9" class="edge">
<title>d_ring&#45;&gt;d_build</title>
<path fill="none" stroke="#37474f" stroke-width="1.3" d="M1268,-539.04C1268,-525.14 1268,-505.37 1268,-489.32"/>
<polygon fill="#37474f" stroke="#37474f" stroke-width="1.3" points="1270.8,-489.37 1268,-481.37 1265.2,-489.37 1270.8,-489.37"/>
</g>
<!-- d_norm -->
<g id="node18" class="node">
<title>d_norm</title>
<path fill="#e6f2e6" stroke="#3c7a3c" stroke-width="1.4" d="M1344.45,-393.34C1344.45,-393.34 1191.55,-393.34 1191.55,-393.34 1185.55,-393.34 1179.55,-387.34 1179.55,-381.34 1179.55,-381.34 1179.55,-369.34 1179.55,-369.34 1179.55,-363.34 1185.55,-357.34 1191.55,-357.34 1191.55,-357.34 1344.45,-357.34 1344.45,-357.34 1350.45,-357.34 1356.45,-363.34 1356.45,-369.34 1356.45,-369.34 1356.45,-381.34 1356.45,-381.34 1356.45,-387.34 1350.45,-393.34 1344.45,-393.34"/>
<text xml:space="preserve" text-anchor="start" x="1189.62" y="-376.89" font-family="Helvetica,sans-Serif" font-weight="bold" font-size="11.00">Normalizer.apply</text>
<text xml:space="preserve" text-anchor="start" x="1293.88" y="-376.89" font-family="Helvetica,sans-Serif" font-size="11.00"> (z&#45;score)</text>
<text xml:space="preserve" text-anchor="start" x="1233.12" y="-365.89" font-family="Helvetica,sans-Serif" font-size="11.00">→ [1,60,200]</text>
</g>
<!-- d_build&#45;&gt;d_norm -->
<g id="edge10" class="edge">
<title>d_build&#45;&gt;d_norm</title>
<path fill="none" stroke="#37474f" stroke-width="1.3" d="M1268,-442.55C1268,-431.32 1268,-416.44 1268,-403.63"/>
<polygon fill="#37474f" stroke="#37474f" stroke-width="1.3" points="1270.8,-403.88 1268,-395.88 1265.2,-403.88 1270.8,-403.88"/>
</g>
<!-- d_norm&#45;&gt;d_back -->
<g id="edge11" class="edge">
<title>d_norm&#45;&gt;d_back</title>
<path fill="none" stroke="#37474f" stroke-width="1.3" d="M1268,-356.7C1268,-342.95 1268,-323.61 1268,-307.86"/>
<polygon fill="#37474f" stroke="#37474f" stroke-width="1.3" points="1270.8,-308.1 1268,-300.1 1265.2,-308.1 1270.8,-308.1"/>
</g>
<!-- d_post -->
<g id="node20" class="node">
<title>d_post</title>
<path fill="#e6f2e6" stroke="#3c7a3c" stroke-width="1.4" d="M1382.83,-216.31C1382.83,-216.31 1121.17,-216.31 1121.17,-216.31 1115.17,-216.31 1109.17,-210.31 1109.17,-204.31 1109.17,-204.31 1109.17,-183.79 1109.17,-183.79 1109.17,-177.79 1115.17,-171.79 1121.17,-171.79 1121.17,-171.79 1382.83,-171.79 1382.83,-171.79 1388.83,-171.79 1394.83,-177.79 1394.83,-183.79 1394.83,-183.79 1394.83,-204.31 1394.83,-204.31 1394.83,-210.31 1388.83,-216.31 1382.83,-216.31"/>
<text xml:space="preserve" text-anchor="start" x="1212.25" y="-201.1" font-family="Helvetica,sans-Serif" font-weight="bold" font-size="11.00">post&#45;process</text>
<text xml:space="preserve" text-anchor="start" x="1141" y="-190.1" font-family="Helvetica,sans-Serif" font-size="11.00">p_bin = σ(logit) · confidence = σ(logit/T)</text>
<text xml:space="preserve" text-anchor="start" x="1119.25" y="-179.1" font-family="Helvetica,sans-Serif" font-size="11.00">intensity = blend·head + (1−blend)·(p_leg·mag)</text>
</g>
<!-- d_back&#45;&gt;d_post -->
<g id="edge12" class="edge">
<title>d_back&#45;&gt;d_post</title>
<path fill="none" stroke="#37474f" stroke-width="1.3" d="M1264.68,-261.26C1262.75,-251.19 1260.26,-238.17 1258,-226.35"/>
<polygon fill="#37474f" stroke="#37474f" stroke-width="1.3" points="1260.79,-226.06 1256.54,-218.73 1255.29,-227.11 1260.79,-226.06"/>
</g>
<!-- d_deb -->
<g id="node21" class="node">
<title>d_deb</title>
<path fill="#e6f2e6" stroke="#3c7a3c" stroke-width="1.4" d="M1313.08,-130.79C1313.08,-130.79 1034.92,-130.79 1034.92,-130.79 1028.92,-130.79 1022.92,-124.79 1022.92,-118.79 1022.92,-118.79 1022.92,-98.27 1022.92,-98.27 1022.92,-92.27 1028.92,-86.27 1034.92,-86.27 1034.92,-86.27 1313.08,-86.27 1313.08,-86.27 1319.08,-86.27 1325.08,-92.27 1325.08,-98.27 1325.08,-98.27 1325.08,-118.79 1325.08,-118.79 1325.08,-124.79 1319.08,-130.79 1313.08,-130.79"/>
<text xml:space="preserve" text-anchor="start" x="1103.12" y="-115.58" font-family="Helvetica,sans-Serif" font-weight="bold" font-size="11.00">debounce + attribution</text>
<text xml:space="preserve" text-anchor="start" x="1035.25" y="-104.58" font-family="Helvetica,sans-Serif" font-size="11.00">alarm = (p_bin ≥ 0.9999 sustained ≥ debounce_k)</text>
<text xml:space="preserve" text-anchor="start" x="1033" y="-93.58" font-family="Helvetica,sans-Serif" font-size="11.00">∧ not stabilizing · per&#45;leg thr (RR=0.9) → alarm_leg</text>
</g>
<!-- d_post&#45;&gt;d_deb -->
<g id="edge13" class="edge">
<title>d_post&#45;&gt;d_deb</title>
<path fill="none" stroke="#37474f" stroke-width="1.3" d="M1231.51,-171.11C1222.19,-161.13 1211.04,-149.19 1201.05,-138.5"/>
<polygon fill="#37474f" stroke="#37474f" stroke-width="1.3" points="1203.21,-136.7 1195.7,-132.77 1199.11,-140.52 1203.21,-136.7"/>
</g>
<!-- d_deb&#45;&gt;t_entstate -->
<g id="edge23" class="edge">
<title>d_deb&#45;&gt;t_entstate</title>
<path fill="none" stroke="#37474f" stroke-width="1.3" d="M980,-90.66C784.16,-73.64 488.09,-47.9 325.73,-33.78"/>
<polygon fill="#37474f" stroke="#37474f" stroke-width="1.3" points="326.17,-31.01 317.96,-33.11 325.69,-36.59 326.17,-31.01"/>
</g>
<!-- r_det&#45;&gt;r_fsm -->
<g id="edge14" class="edge">
<title>r_det&#45;&gt;r_fsm</title>
<path fill="none" stroke="#37474f" stroke-width="1.3" d="M219.93,-764.25C261.97,-752.63 318.46,-737.02 369.55,-722.9"/>
<polygon fill="#37474f" stroke="#37474f" stroke-width="1.3" points="370.16,-725.64 377.12,-720.81 368.66,-720.24 370.16,-725.64"/>
</g>
<!-- r_telem&#45;&gt;r_fsm -->
<g id="edge15" class="edge">
<title>r_telem&#45;&gt;r_fsm</title>
<path fill="none" stroke="#37474f" stroke-width="1.3" d="M502.9,-764.58C502.28,-754.83 501.48,-742.18 500.7,-729.96"/>
<polygon fill="#37474f" stroke="#37474f" stroke-width="1.3" points="503.51,-730.08 500.21,-722.27 497.93,-730.43 503.51,-730.08"/>
</g>
<!-- r_fsm&#45;&gt;t_status -->
<g id="edge31" class="edge">
<title>r_fsm&#45;&gt;t_status</title>
<path fill="none" stroke="#37474f" stroke-width="1.3" d="M703,-701.31C1007.3,-722.02 1543.22,-758.75 1545,-760.66 1662.63,-886.81 1365.67,-1015.27 1233.07,-1064.51"/>
<polygon fill="#37474f" stroke="#37474f" stroke-width="1.3" points="1232.2,-1061.85 1225.66,-1067.24 1234.13,-1067.11 1232.2,-1061.85"/>
</g>
<!-- r_mgr -->
<g id="node25" class="node">
<title>r_mgr</title>
<path fill="#fbeedd" stroke="#b5701a" stroke-width="1.4" d="M670.58,-590.64C670.58,-590.64 305.42,-590.64 305.42,-590.64 299.42,-590.64 293.42,-584.64 293.42,-578.64 293.42,-578.64 293.42,-536.12 293.42,-536.12 293.42,-530.12 299.42,-524.12 305.42,-524.12 305.42,-524.12 670.58,-524.12 670.58,-524.12 676.58,-524.12 682.58,-530.12 682.58,-536.12 682.58,-536.12 682.58,-578.64 682.58,-578.64 682.58,-584.64 676.58,-590.64 670.58,-590.64"/>
<text xml:space="preserve" text-anchor="start" x="350" y="-575.43" font-family="Helvetica,sans-Serif" font-weight="bold" font-size="11.00">StrategyManager.order(ctx)</text>
<text xml:space="preserve" text-anchor="start" x="523.25" y="-575.43" font-family="Helvetica,sans-Serif" font-size="11.00"> — detector&#45;aware</text>
<text xml:space="preserve" text-anchor="start" x="334.62" y="-564.43" font-family="Helvetica,sans-Serif" font-size="11.00">fallen → [recovery_stand (soc ≥ min), emergency_stop]</text>
<text xml:space="preserve" text-anchor="start" x="380" y="-553.43" font-family="Helvetica,sans-Serif" font-size="11.00">upright → [balance_stand, weight_shift,</text>
<text xml:space="preserve" text-anchor="start" x="303.5" y="-542.43" font-family="Helvetica,sans-Serif" font-size="11.00">  (conf ≥ 0.6 ∧ intensity &lt; 0.8 → small_reverse, sidestep, rotate),</text>
<text xml:space="preserve" text-anchor="start" x="433.62" y="-531.43" font-family="Helvetica,sans-Serif" font-size="11.00">  emergency_stop]</text>
</g>
<!-- r_fsm&#45;&gt;r_mgr -->
<g id="edge16" class="edge">
<title>r_fsm&#45;&gt;r_mgr</title>
<path fill="none" stroke="#37474f" stroke-width="1.3" d="M495.42,-652.69C494.18,-636.84 492.66,-617.6 491.33,-600.65"/>
<polygon fill="#37474f" stroke="#37474f" stroke-width="1.3" points="494.14,-600.7 490.72,-592.94 488.56,-601.14 494.14,-600.7"/>
<text xml:space="preserve" text-anchor="middle" x="525.47" y="-618.49" font-family="Helvetica,sans-Serif" font-size="9.50">RECOVERING</text>
</g>
<!-- r_plan -->
<g id="node26" class="node">
<title>r_plan</title>
<path fill="#fbeedd" stroke="#b5701a" stroke-width="1.4" d="M634.83,-483.12C634.83,-483.12 337.17,-483.12 337.17,-483.12 331.17,-483.12 325.17,-477.12 325.17,-471.12 325.17,-471.12 325.17,-450.6 325.17,-450.6 325.17,-444.6 331.17,-438.6 337.17,-438.6 337.17,-438.6 634.83,-438.6 634.83,-438.6 640.83,-438.6 646.83,-444.6 646.83,-450.6 646.83,-450.6 646.83,-471.12 646.83,-471.12 646.83,-477.12 640.83,-483.12 634.83,-483.12"/>
<text xml:space="preserve" text-anchor="start" x="373.88" y="-467.91" font-family="Helvetica,sans-Serif" font-weight="bold" font-size="11.00">strategies → MotionPlan</text>
<text xml:space="preserve" text-anchor="start" x="523.12" y="-467.91" font-family="Helvetica,sans-Serif" font-size="11.00"> (PlanRunner)</text>
<text xml:space="preserve" text-anchor="start" x="335.25" y="-456.91" font-family="Helvetica,sans-Serif" font-size="11.00">MotionStep kind = ONESHOT · STREAM (Move) · HOLD</text>
<text xml:space="preserve" text-anchor="start" x="381.75" y="-445.91" font-family="Helvetica,sans-Serif" font-size="11.00">magnitudes scale down with intensity</text>
</g>
<!-- r_mgr&#45;&gt;r_plan -->
<g id="edge17" class="edge">
<title>r_mgr&#45;&gt;r_plan</title>
<path fill="none" stroke="#37474f" stroke-width="1.3" d="M487.31,-523.59C487.1,-513.77 486.87,-503.04 486.67,-493.31"/>
<polygon fill="#37474f" stroke="#37474f" stroke-width="1.3" points="489.47,-493.53 486.5,-485.59 483.87,-493.65 489.47,-493.53"/>
</g>
<!-- r_api -->
<g id="node27" class="node">
<title>r_api</title>
<path fill="#fbeedd" stroke="#b5701a" stroke-width="1.4" d="M679.46,-397.6C679.46,-397.6 280.54,-397.6 280.54,-397.6 274.54,-397.6 268.54,-391.6 268.54,-385.6 268.54,-385.6 268.54,-365.08 268.54,-365.08 268.54,-359.08 274.54,-353.08 280.54,-353.08 280.54,-353.08 679.46,-353.08 679.46,-353.08 685.46,-353.08 691.46,-359.08 691.46,-365.08 691.46,-365.08 691.46,-385.6 691.46,-385.6 691.46,-391.6 685.46,-397.6 679.46,-397.6"/>
<text xml:space="preserve" text-anchor="start" x="414.75" y="-382.39" font-family="Helvetica,sans-Serif" font-weight="bold" font-size="11.00">verified Sport API ids</text>
<text xml:space="preserve" text-anchor="start" x="304.5" y="-371.39" font-family="Helvetica,sans-Serif" font-size="11.00">StopMove 1003 · BalanceStand 1002 · Euler 1007 (weight_shift)</text>
<text xml:space="preserve" text-anchor="start" x="278.62" y="-360.39" font-family="Helvetica,sans-Serif" font-size="11.00">Move 1008 (reverse/sidestep/rotate) · RecoveryStand 1006 · Damp 1001</text>
</g>
<!-- r_plan&#45;&gt;r_api -->
<g id="edge18" class="edge">
<title>r_plan&#45;&gt;r_api</title>
<path fill="none" stroke="#37474f" stroke-width="1.3" d="M484.42,-437.92C483.76,-428.71 482.98,-417.83 482.26,-407.8"/>
<polygon fill="#37474f" stroke="#37474f" stroke-width="1.3" points="485.07,-407.88 481.71,-400.1 479.49,-408.28 485.07,-407.88"/>
</g>
<!-- r_sport -->
<g id="node28" class="node">
<title>r_sport</title>
<path fill="#fbeedd" stroke="#b5701a" stroke-width="1.4" d="M660.08,-301.83C660.08,-301.83 339.92,-301.83 339.92,-301.83 333.92,-301.83 327.92,-295.83 327.92,-289.83 327.92,-289.83 327.92,-269.31 327.92,-269.31 327.92,-263.31 333.92,-257.31 339.92,-257.31 339.92,-257.31 660.08,-257.31 660.08,-257.31 666.08,-257.31 672.08,-263.31 672.08,-269.31 672.08,-269.31 672.08,-289.83 672.08,-289.83 672.08,-295.83 666.08,-301.83 660.08,-301.83"/>
<text xml:space="preserve" text-anchor="start" x="436.25" y="-286.62" font-family="Helvetica,sans-Serif" font-weight="bold" font-size="11.00">SportClient.send_api</text>
<text xml:space="preserve" text-anchor="start" x="338" y="-275.62" font-family="Helvetica,sans-Serif" font-size="11.00">Command → Request · </text>
<text xml:space="preserve" text-anchor="start" x="466.25" y="-275.62" font-family="Helvetica,sans-Serif" font-weight="bold" font-size="11.00">dry&#45;run gate (enable_actuation)</text>
<text xml:space="preserve" text-anchor="start" x="372.12" y="-264.62" font-family="Helvetica,sans-Serif" font-size="11.00">ack on /api/sport/response (status.code == 0)</text>
</g>
<!-- r_api&#45;&gt;r_sport -->
<g id="edge19" class="edge">
<title>r_api&#45;&gt;r_sport</title>
<path fill="none" stroke="#37474f" stroke-width="1.3" d="M484.64,-352.59C487.2,-340.61 490.42,-325.51 493.25,-312.24"/>
<polygon fill="#37474f" stroke="#37474f" stroke-width="1.3" points="495.98,-312.86 494.91,-304.45 490.5,-311.69 495.98,-312.86"/>
</g>
<!-- r_sport&#45;&gt;t_sportreq -->
<g id="edge28" class="edge">
<title>r_sport&#45;&gt;t_sportreq</title>
<path fill="none" stroke="#37474f" stroke-width="1.3" d="M703,-286.66C824.3,-296.05 955,-319.01 955,-374.34 955,-981.71 955,-981.71 955,-981.71 955,-1008.81 964.83,-1038.3 973.42,-1058.88"/>
<polygon fill="#37474f" stroke="#37474f" stroke-width="1.3" points="970.82,-1059.93 976.58,-1066.15 975.96,-1057.69 970.82,-1059.93"/>
</g>
<!-- robot&#45;&gt;t_lowstate -->
<g id="edge21" class="edge">
<title>robot&#45;&gt;t_lowstate</title>
<path fill="none" stroke="#37474f" stroke-width="1.3" d="M1152.14,-956.15C1172.38,-945.35 1196.47,-932.49 1217.43,-921.3"/>
<polygon fill="#37474f" stroke="#37474f" stroke-width="1.3" points="1218.73,-923.79 1224.47,-917.55 1216.09,-918.85 1218.73,-923.79"/>
</g>
<!-- robot&#45;&gt;t_sportmode -->
<g id="edge25" class="edge">
<title>robot&#45;&gt;t_sportmode</title>
<path fill="none" stroke="#37474f" stroke-width="1.3" d="M1100.62,-956.38C1097.19,-945.53 1093.09,-932.57 1089.53,-921.3"/>
<polygon fill="#37474f" stroke="#37474f" stroke-width="1.3" points="1092.24,-920.59 1087.16,-913.81 1086.91,-922.28 1092.24,-920.59"/>
</g>
<!-- robot&#45;&gt;r_sport -->
<g id="edge30" class="edge">
<title>robot&#45;&gt;r_sport</title>
<path fill="none" stroke="#37474f" stroke-width="1.3" stroke-dasharray="5,2" d="M1223.94,-973.6C1465.32,-960.6 2000.69,-930.23 2014,-915.95 2188.21,-729.05 2190.92,-525.41 2014,-341.08 2009.12,-336 1068.23,-305.59 974,-301.83 877.81,-297.99 770.66,-293.22 682.6,-289.18"/>
<polygon fill="#37474f" stroke="#37474f" stroke-width="1.3" points="682.86,-286.39 674.74,-288.82 682.61,-291.98 682.86,-286.39"/>
<text xml:space="preserve" text-anchor="start" x="2145.68" y="-624.12" font-family="Helvetica,sans-Serif" font-size="9.50">/api/sport/response</text>
<text xml:space="preserve" text-anchor="middle" x="2192.18" y="-612.87" font-family="Helvetica,sans-Serif" font-size="9.50">(status.code == 0)</text>
</g>
</g>
</svg>
